SubSource-HROTdd_VROTdd_SLENn_SANGx.ufo
<glyph name="parenright" format="2">
  <advance width="452"/>
  <unicode hex="0029"/>
  <outline>
    <contour>
      <point x="72" y="790" type="curve" smooth="yes"/>
      <point x="231" y="746"/>
      <point x="382" y="585"/>
      <point x="382" y="306" type="curve" smooth="yes"/>
      <point x="382" y="27"/>
      <point x="231" y="-134"/>
      <point x="72" y="-178" type="curve" smooth="yes"/>
      <point x="7" y="-196"/>
      <point x="-17" y="-110"/>
      <point x="48" y="-92" type="curve" smooth="yes"/>
      <point x="177" y="-56"/>
      <point x="292" y="79"/>
      <point x="292" y="306" type="curve" smooth="yes"/>
      <point x="292" y="533"/>
      <point x="177" y="668"/>
      <point x="48" y="704" type="curve" smooth="yes"/>
      <point x="-17" y="722"/>
      <point x="7" y="808"/>
    </contour>
  </outline>
</glyph>
<glyph name="slash" format="2">
  <advance width="490"/>
  <unicode hex="002F"/>
  <outline>
    <contour>
      <point x="421" y="716" type="curve" smooth="yes"/>
      <point x="141" y="-134" type="line" smooth="yes"/>
      <point x="120" y="-198"/>
      <point x="34" y="-170"/>
      <point x="55" y="-106" type="curve" smooth="yes"/>
      <point x="335" y="744" type="line" smooth="yes"/>
      <point x="356" y="808"/>
      <point x="442" y="780"/>
    </contour>
  </outline>
</glyph>
<glyph name="zero" format="2">
  <advance width="592"/>
  <unicode hex="0030"/>
  <outline>
    <contour>
      <point x="338" y="86" type="curve" smooth="yes"/>
      <point x="365" y="94"/>
      <point x="384" y="112"/>
      <point x="401" y="133" type="curve" smooth="yes"/>
      <point x="440" y="179"/>
      <point x="462" y="255"/>
      <point x="462" y="341" type="curve" smooth="yes"/>
      <point x="462" y="487"/>
      <point x="400" y="600"/>
      <point x="296" y="600" type="curve" smooth="yes"/>
      <point x="191" y="600"/>
      <point x="130" y="487"/>
      <point x="130" y="341" type="curve" smooth="yes"/>
      <point x="130" y="255"/>
      <point x="152" y="179"/>
      <point x="191" y="133" type="curve" smooth="yes"/>
      <point x="208" y="112"/>
      <point x="227" y="94"/>
      <point x="254" y="86" type="curve" smooth="yes"/>
      <point x="319" y="66"/>
      <point x="292" y="-20"/>
      <point x="228" y="0" type="curve" smooth="yes"/>
      <point x="183" y="14"/>
      <point x="150" y="41"/>
      <point x="121" y="75" type="curve" smooth="yes"/>
      <point x="72" y="135"/>
      <point x="40" y="229"/>
      <point x="40" y="341" type="curve" smooth="yes"/>
      <point x="40" y="550"/>
      <point x="146" y="690"/>
      <point x="296" y="690" type="curve" smooth="yes"/>
      <point x="445" y="690"/>
      <point x="552" y="550"/>
      <point x="552" y="341" type="curve" smooth="yes"/>
      <point x="552" y="229"/>
      <point x="520" y="135"/>
      <point x="471" y="75" type="curve" smooth="yes"/>
      <point x="442" y="41"/>
      <point x="409" y="14"/>
      <point x="364" y="0" type="curve" smooth="yes"/>
      <point x="300" y="-20"/>
      <point x="273" y="66"/>
    </contour>
  </outline>
</glyph>
<glyph name="four" format="2">
  <advance width="525"/>
  <unicode hex="0034"/>
  <outline>
    <contour>
      <point x="472" y="166" type="curve" smooth="yes"/>
      <point x="381" y="166"/>
      <point x="289" y="166"/>
      <point x="228" y="166" type="curve" smooth="yes"/>
      <point x="179" y="166"/>
      <point x="149" y="166"/>
      <point x="130" y="166" type="curve" smooth="yes"/>
      <point x="31" y="166"/>
      <point x="-3" y="225"/>
      <point x="56" y="319" type="curve" smooth="yes"/>
      <point x="68" y="338"/>
      <point x="84" y="363"/>
      <point x="101" y="390" type="curve" smooth="yes"/>
      <point x="129" y="432"/>
      <point x="165" y="488"/>
      <point x="187" y="521" type="curve" smooth="yes"/>
      <point x="204" y="549"/>
      <point x="221" y="576"/>
      <point x="237" y="598" type="curve" smooth="yes"/>
      <point x="315" y="714"/>
      <point x="415" y="715"/>
      <point x="415" y="572" type="curve" smooth="yes"/>
      <point x="415" y="549"/>
      <point x="415" y="522"/>
      <point x="415" y="498" type="curve" smooth="yes"/>
      <point x="415" y="359"/>
      <point x="415" y="202"/>
      <point x="415" y="157" type="curve" smooth="yes"/>
      <point x="415" y="95"/>
      <point x="415" y="69"/>
      <point x="415" y="40" type="curve" smooth="yes"/>
      <point x="415" y="-28"/>
      <point x="325" y="-27"/>
      <point x="325" y="40" type="curve" smooth="yes"/>
      <point x="325" y="83"/>
      <point x="325" y="115"/>
      <point x="325" y="157" type="curve" smooth="yes"/>
      <point x="325" y="224"/>
      <point x="325" y="405"/>
      <point x="325" y="498" type="curve" smooth="yes"/>
      <point x="325" y="533"/>
      <point x="325" y="556"/>
      <point x="325" y="572" type="curve" smooth="yes"/>
      <point x="325" y="579"/>
      <point x="315" y="554"/>
      <point x="311" y="548" type="curve" smooth="yes"/>
      <point x="297" y="526"/>
      <point x="280" y="501"/>
      <point x="263" y="473" type="curve" smooth="yes"/>
      <point x="241" y="438"/>
      <point x="205" y="382"/>
      <point x="177" y="340" type="curve" smooth="yes"/>
      <point x="160" y="315"/>
      <point x="144" y="290"/>
      <point x="132" y="271" type="curve" smooth="yes"/>
      <point x="126" y="261"/>
      <point x="120" y="256"/>
      <point x="130" y="256" type="curve" smooth="yes"/>
      <point x="158" y="256"/>
      <point x="195" y="256"/>
      <point x="228" y="256" type="curve" smooth="yes"/>
      <point x="319" y="256"/>
      <point x="411" y="256"/>
      <point x="472" y="256" type="curve" smooth="yes"/>
      <point x="540" y="256"/>
      <point x="540" y="166"/>
    </contour>
  </outline>
</glyph>
<glyph name="five" format="2">
  <advance width="501"/>
  <unicode hex="0035"/>
  <outline>
    <contour>
      <point x="390" y="590" type="curve" smooth="yes"/>
      <point x="352" y="590"/>
      <point x="334" y="590"/>
      <point x="310" y="590" type="curve" smooth="yes"/>
      <point x="269" y="590"/>
      <point x="223" y="590"/>
      <point x="197" y="590" type="curve" smooth="yes"/>
      <point x="186" y="590"/>
      <point x="183" y="591"/>
      <point x="182" y="581" type="curve" smooth="yes"/>
      <point x="178" y="544"/>
      <point x="176" y="532"/>
      <point x="173" y="502" type="curve" smooth="yes"/>
      <point x="169" y="465"/>
      <point x="168" y="448"/>
      <point x="164" y="406" type="curve" smooth="yes"/>
      <point x="163" y="403"/>
      <point x="148" y="409"/>
      <point x="151" y="410" type="curve" smooth="yes"/>
      <point x="185" y="413"/>
      <point x="206" y="414"/>
      <point x="238" y="414" type="curve" smooth="yes"/>
      <point x="368" y="414"/>
      <point x="466" y="344"/>
      <point x="466" y="205" type="curve" smooth="yes"/>
      <point x="466" y="60"/>
      <point x="364" y="-9"/>
      <point x="233" y="-9" type="curve" smooth="yes"/>
      <point x="185" y="-9"/>
      <point x="132" y="1"/>
      <point x="78" y="22" type="curve" smooth="yes"/>
      <point x="16" y="47"/>
      <point x="49" y="131"/>
      <point x="112" y="106" type="curve" smooth="yes"/>
      <point x="154" y="89"/>
      <point x="195" y="81"/>
      <point x="233" y="81" type="curve" smooth="yes"/>
      <point x="316" y="81"/>
      <point x="376" y="113"/>
      <point x="376" y="205" type="curve" smooth="yes"/>
      <point x="376" y="292"/>
      <point x="319" y="324"/>
      <point x="238" y="324" type="curve" smooth="yes"/>
      <point x="208" y="324"/>
      <point x="191" y="323"/>
      <point x="161" y="320" type="curve" smooth="yes"/>
      <point x="101" y="313"/>
      <point x="67" y="340"/>
      <point x="74" y="414" type="curve" smooth="yes"/>
      <point x="78" y="456"/>
      <point x="79" y="475"/>
      <point x="83" y="510" type="curve" smooth="yes"/>
      <point x="86" y="542"/>
      <point x="88" y="554"/>
      <point x="92" y="591" type="curve" smooth="yes"/>
      <point x="99" y="649"/>
      <point x="136" y="680"/>
      <point x="197" y="680" type="curve" smooth="yes"/>
      <point x="236" y="680"/>
      <point x="282" y="680"/>
      <point x="310" y="680" type="curve" smooth="yes"/>
      <point x="345" y="680"/>
      <point x="365" y="680"/>
      <point x="390" y="680" type="curve" smooth="yes"/>
      <point x="458" y="680"/>
      <point x="458" y="590"/>
    </contour>
  </outline>
</glyph>
<glyph name="six" format="2">
  <advance width="534"/>
  <unicode hex="0036"/>
  <outline>
    <contour>
      <point x="98" y="345" type="curve" smooth="yes"/>
      <point x="136" y="398"/>
      <point x="202" y="440"/>
      <point x="282" y="440" type="curve" smooth="yes"/>
      <point x="405" y="440"/>
      <point x="501" y="349"/>
      <point x="501" y="221" type="curve" smooth="yes"/>
      <point x="501" y="91"/>
      <point x="412" y="-8"/>
      <point x="277" y="-8" type="curve" smooth="yes"/>
      <point x="162" y="-8"/>
      <point x="40" y="79"/>
      <point x="40" y="314" type="curve" smooth="yes"/>
      <point x="40" y="582"/>
      <point x="182" y="687"/>
      <point x="314" y="687" type="curve" smooth="yes"/>
      <point x="358" y="687"/>
      <point x="403" y="676"/>
      <point x="443" y="655" type="curve" smooth="yes"/>
      <point x="502" y="622"/>
      <point x="459" y="543"/>
      <point x="399" y="575" type="curve" smooth="yes"/>
      <point x="373" y="590"/>
      <point x="344" y="597"/>
      <point x="314" y="597" type="curve" smooth="yes"/>
      <point x="217" y="597"/>
      <point x="130" y="511"/>
      <point x="130" y="314" type="curve" smooth="yes"/>
      <point x="130" y="150"/>
      <point x="197" y="82"/>
      <point x="277" y="82" type="curve" smooth="yes"/>
      <point x="362" y="82"/>
      <point x="411" y="139"/>
      <point x="411" y="221" type="curve" smooth="yes"/>
      <point x="411" y="299"/>
      <point x="357" y="350"/>
      <point x="282" y="350" type="curve" smooth="yes"/>
      <point x="234" y="350"/>
      <point x="194" y="324"/>
      <point x="172" y="293" type="curve" smooth="yes"/>
      <point x="132" y="238"/>
      <point x="59" y="290"/>
    </contour>
  </outline>
</glyph>
<glyph name="equal" format="2">
  <advance width="490"/>
  <unicode hex="003D"/>
  <outline>
    <contour>
      <point x="410" y="383" type="curve" smooth="yes"/>
      <point x="277" y="383"/>
      <point x="169" y="383"/>
      <point x="80" y="383" type="curve" smooth="yes"/>
      <point x="12" y="383"/>
      <point x="13" y="473"/>
      <point x="80" y="473" type="curve" smooth="yes"/>
      <point x="213" y="473"/>
      <point x="321" y="473"/>
      <point x="410" y="473" type="curve" smooth="yes"/>
      <point x="478" y="473"/>
      <point x="478" y="383"/>
    </contour>
    <contour>
      <point x="410" y="143" type="curve" smooth="yes"/>
      <point x="277" y="143"/>
      <point x="169" y="143"/>
      <point x="80" y="143" type="curve" smooth="yes"/>
      <point x="12" y="143"/>
      <point x="13" y="233"/>
      <point x="80" y="233" type="curve" smooth="yes"/>
      <point x="213" y="233"/>
      <point x="321" y="233"/>
      <point x="410" y="233" type="curve" smooth="yes"/>
      <point x="478" y="233"/>
      <point x="478" y="143"/>
    </contour>
  </outline>
</glyph>
<glyph name="F" format="2">
  <advance width="503"/>
  <unicode hex="0046"/>
  <outline>
    <contour>
      <point x="401" y="285" type="curve" smooth="yes"/>
      <point x="334" y="285"/>
      <point x="254" y="285"/>
      <point x="202" y="285" type="curve" smooth="yes"/>
      <point x="171" y="285"/>
      <point x="170" y="263"/>
      <point x="170" y="223" type="curve" smooth="yes"/>
      <point x="170" y="172"/>
      <point x="170" y="159"/>
      <point x="170" y="111" type="curve" smooth="yes"/>
      <point x="170" y="78"/>
      <point x="80" y="-172"/>
      <point x="80" y="116" type="curve" smooth="yes"/>
      <point x="80" y="323"/>
      <point x="80" y="478"/>
      <point x="80" y="550" type="curve" smooth="yes"/>
      <point x="80" y="636"/>
      <point x="113" y="680"/>
      <point x="210" y="680" type="curve" smooth="yes"/>
      <point x="262" y="680"/>
      <point x="365" y="680"/>
      <point x="423" y="680" type="curve" smooth="yes"/>
      <point x="491" y="680"/>
      <point x="491" y="590"/>
      <point x="423" y="590" type="curve" smooth="yes"/>
      <point x="336" y="590"/>
      <point x="245" y="590"/>
      <point x="210" y="590" type="curve" smooth="yes"/>
      <point x="169" y="590"/>
      <point x="170" y="587"/>
      <point x="170" y="550" type="curve" smooth="yes"/>
      <point x="170" y="443"/>
      <point x="170" y="255"/>
      <point x="170" y="116" type="curve" smooth="yes"/>
      <point x="170" y="83"/>
      <point x="80" y="-173"/>
      <point x="80" y="111" type="curve" smooth="yes"/>
      <point x="80" y="183"/>
      <point x="80" y="189"/>
      <point x="80" y="223" type="curve" smooth="yes"/>
      <point x="80" y="325"/>
      <point x="122" y="375"/>
      <point x="202" y="375" type="curve" smooth="yes"/>
      <point x="280" y="375"/>
      <point x="356" y="375"/>
      <point x="401" y="375" type="curve" smooth="yes"/>
      <point x="469" y="375"/>
      <point x="469" y="285"/>
    </contour>
  </outline>
</glyph>
<glyph name="L" format="2">
  <advance width="498"/>
  <unicode hex="004C"/>
  <outline>
    <contour>
      <point x="413" y="0" type="curve" smooth="yes"/>
      <point x="340" y="0"/>
      <point x="280" y="0"/>
      <point x="220" y="0" type="curve" smooth="yes"/>
      <point x="99" y="0"/>
      <point x="80" y="46"/>
      <point x="80" y="203" type="curve" smooth="yes"/>
      <point x="80" y="332"/>
      <point x="80" y="433"/>
      <point x="80" y="520" type="curve" smooth="yes"/>
      <point x="80" y="569"/>
      <point x="80" y="607"/>
      <point x="80" y="640" type="curve" smooth="yes"/>
      <point x="80" y="708"/>
      <point x="170" y="708"/>
      <point x="170" y="640" type="curve" smooth="yes"/>
      <point x="170" y="591"/>
      <point x="170" y="553"/>
      <point x="170" y="520" type="curve" smooth="yes"/>
      <point x="170" y="391"/>
      <point x="170" y="290"/>
      <point x="170" y="203" type="curve" smooth="yes"/>
      <point x="170" y="120"/>
      <point x="156" y="90"/>
      <point x="220" y="90" type="curve" smooth="yes"/>
      <point x="309" y="90"/>
      <point x="364" y="90"/>
      <point x="413" y="90" type="curve" smooth="yes"/>
      <point x="481" y="90"/>
      <point x="481" y="0"/>
    </contour>
  </outline>
</glyph>
<glyph name="M" format="2">
  <advance width="808"/>
  <unicode hex="004D"/>
  <outline>
    <contour>
      <point x="638" y="40" type="curve" smooth="yes"/>
      <point x="638" y="88"/>
      <point x="638" y="125"/>
      <point x="638" y="157" type="curve" smooth="yes"/>
      <point x="638" y="234"/>
      <point x="638" y="295"/>
      <point x="638" y="348" type="curve" smooth="yes"/>
      <point x="638" y="414"/>
      <point x="638" y="460"/>
      <point x="638" y="528" type="curve" smooth="yes"/>
      <point x="638" y="540"/>
      <point x="635" y="524"/>
      <point x="630" y="512" type="curve" smooth="yes"/>
      <point x="608" y="455"/>
      <point x="585" y="395"/>
      <point x="563" y="333" type="curve" smooth="yes"/>
      <point x="538" y="265"/>
      <point x="514" y="198"/>
      <point x="491" y="134" type="curve" smooth="yes"/>
      <point x="433" y="-33"/>
      <point x="377" y="-33"/>
      <point x="317" y="134" type="curve" smooth="yes"/>
      <point x="294" y="198"/>
      <point x="270" y="265"/>
      <point x="245" y="332" type="curve" smooth="yes"/>
      <point x="223" y="391"/>
      <point x="200" y="452"/>
      <point x="178" y="511" type="curve" smooth="yes"/>
      <point x="173" y="523"/>
      <point x="170" y="539"/>
      <point x="170" y="527" type="curve" smooth="yes"/>
      <point x="170" y="455"/>
      <point x="170" y="397"/>
      <point x="170" y="348" type="curve" smooth="yes"/>
      <point x="170" y="268"/>
      <point x="170" y="205"/>
      <point x="170" y="152" type="curve" smooth="yes"/>
      <point x="170" y="107"/>
      <point x="170" y="70"/>
      <point x="170" y="40" type="curve" smooth="yes"/>
      <point x="170" y="-28"/>
      <point x="80" y="-27"/>
      <point x="80" y="40" type="curve" smooth="yes"/>
      <point x="80" y="85"/>
      <point x="80" y="122"/>
      <point x="80" y="152" type="curve" smooth="yes"/>
      <point x="80" y="231"/>
      <point x="80" y="294"/>
      <point x="80" y="348" type="curve" smooth="yes"/>
      <point x="80" y="421"/>
      <point x="80" y="479"/>
      <point x="80" y="527" type="curve" smooth="yes"/>
      <point x="80" y="736"/>
      <point x="181" y="757"/>
      <point x="262" y="543" type="curve" smooth="yes"/>
      <point x="284" y="485"/>
      <point x="306" y="425"/>
      <point x="329" y="364" type="curve" smooth="yes"/>
      <point x="354" y="295"/>
      <point x="378" y="228"/>
      <point x="401" y="164" type="curve" smooth="yes"/>
      <point x="405" y="155"/>
      <point x="403" y="155"/>
      <point x="407" y="164" type="curve" smooth="yes"/>
      <point x="430" y="228"/>
      <point x="454" y="295"/>
      <point x="479" y="363" type="curve" smooth="yes"/>
      <point x="501" y="425"/>
      <point x="524" y="487"/>
      <point x="546" y="544" type="curve" smooth="yes"/>
      <point x="627" y="760"/>
      <point x="728" y="738"/>
      <point x="728" y="528" type="curve" smooth="yes"/>
      <point x="728" y="427"/>
      <point x="728" y="392"/>
      <point x="728" y="348" type="curve" smooth="yes"/>
      <point x="728" y="269"/>
      <point x="728" y="209"/>
      <point x="728" y="157" type="curve" smooth="yes"/>
      <point x="728" y="109"/>
      <point x="728" y="72"/>
      <point x="728" y="40" type="curve" smooth="yes"/>
      <point x="728" y="-28"/>
      <point x="638" y="-27"/>
    </contour>
  </outline>
</glyph>
<glyph name="P" format="2">
  <advance width="555"/>
  <unicode hex="0050"/>
  <outline>
    <contour>
      <point x="225" y="343" type="curve" smooth="yes"/>
      <point x="252" y="343"/>
      <point x="279" y="343"/>
      <point x="307" y="343" type="curve" smooth="yes"/>
      <point x="380" y="343"/>
      <point x="430" y="392"/>
      <point x="430" y="466" type="curve" smooth="yes"/>
      <point x="430" y="541"/>
      <point x="379" y="590"/>
      <point x="295" y="590" type="curve" smooth="yes"/>
      <point x="258" y="590"/>
      <point x="231" y="590"/>
      <point x="206" y="590" type="curve" smooth="yes"/>
      <point x="168" y="590"/>
      <point x="170" y="587"/>
      <point x="170" y="550" type="curve" smooth="yes"/>
      <point x="170" y="399"/>
      <point x="170" y="270"/>
      <point x="170" y="178" type="curve" smooth="yes"/>
      <point x="170" y="122"/>
      <point x="170" y="78"/>
      <point x="170" y="40" type="curve" smooth="yes"/>
      <point x="170" y="-28"/>
      <point x="80" y="-27"/>
      <point x="80" y="40" type="curve" smooth="yes"/>
      <point x="80" y="96"/>
      <point x="80" y="140"/>
      <point x="80" y="178" type="curve" smooth="yes"/>
      <point x="80" y="314"/>
      <point x="80" y="449"/>
      <point x="80" y="550" type="curve" smooth="yes"/>
      <point x="80" y="640"/>
      <point x="114" y="680"/>
      <point x="206" y="680" type="curve" smooth="yes"/>
      <point x="243" y="680"/>
      <point x="270" y="680"/>
      <point x="295" y="680" type="curve" smooth="yes"/>
      <point x="431" y="680"/>
      <point x="520" y="589"/>
      <point x="520" y="466" type="curve" smooth="yes"/>
      <point x="520" y="342"/>
      <point x="430" y="253"/>
      <point x="307" y="253" type="curve" smooth="yes"/>
      <point x="266" y="253"/>
      <point x="243" y="253"/>
      <point x="225" y="253" type="curve" smooth="yes"/>
      <point x="158" y="253"/>
      <point x="158" y="343"/>
    </contour>
  </outline>
</glyph>
<glyph name="V" format="2">
  <advance width="620"/>
  <unicode hex="0056"/>
  <outline>
    <contour>
      <point x="591" y="626" type="curve" smooth="yes"/>
      <point x="569" y="559"/>
      <point x="549" y="502"/>
      <point x="528" y="444" type="curve" smooth="yes"/>
      <point x="500" y="367"/>
      <point x="459" y="251"/>
      <point x="419" y="143" type="curve" smooth="yes"/>
      <point x="342" y="-64"/>
      <point x="282" y="-90"/>
      <point x="204" y="130" type="curve" smooth="yes"/>
      <point x="162" y="249"/>
      <point x="124" y="354"/>
      <point x="89" y="452" type="curve" smooth="yes"/>
      <point x="70" y="508"/>
      <point x="52" y="571"/>
      <point x="30" y="623" type="curve" smooth="yes"/>
      <point x="5" y="685"/>
      <point x="88" y="720"/>
      <point x="114" y="657" type="curve" smooth="yes"/>
      <point x="136" y="603"/>
      <point x="156" y="534"/>
      <point x="175" y="482" type="curve" smooth="yes"/>
      <point x="210" y="381"/>
      <point x="248" y="275"/>
      <point x="288" y="160" type="curve" smooth="yes"/>
      <point x="314" y="88"/>
      <point x="310" y="107"/>
      <point x="335" y="175" type="curve" smooth="yes"/>
      <point x="376" y="285"/>
      <point x="416" y="400"/>
      <point x="444" y="474" type="curve" smooth="yes"/>
      <point x="465" y="532"/>
      <point x="483" y="589"/>
      <point x="505" y="654" type="curve" smooth="yes"/>
      <point x="527" y="718"/>
      <point x="612" y="690"/>
    </contour>
  </outline>
</glyph>
<glyph name="f" format="2">
  <advance width="364"/>
  <unicode hex="0066"/>
  <outline>
    <contour>
      <point x="318" y="636" type="curve" smooth="yes"/>
      <point x="260" y="665"/>
      <point x="208" y="645"/>
      <point x="208" y="584" type="curve" smooth="yes"/>
      <point x="208" y="413"/>
      <point x="208" y="261"/>
      <point x="208" y="195" type="curve" smooth="yes"/>
      <point x="208" y="132"/>
      <point x="208" y="74"/>
      <point x="208" y="40" type="curve" smooth="yes"/>
      <point x="208" y="-28"/>
      <point x="118" y="-27"/>
      <point x="118" y="40" type="curve" smooth="yes"/>
      <point x="118" y="91"/>
      <point x="118" y="152"/>
      <point x="118" y="195" type="curve" smooth="yes"/>
      <point x="118" y="294"/>
      <point x="118" y="470"/>
      <point x="118" y="584" type="curve" smooth="yes"/>
      <point x="118" y="711"/>
      <point x="238" y="777"/>
      <point x="358" y="716" type="curve" smooth="yes"/>
      <point x="419" y="686"/>
      <point x="378" y="605"/>
    </contour>
    <contour>
      <point x="309" y="408" type="curve" smooth="yes"/>
      <point x="268" y="408"/>
      <point x="242" y="408"/>
      <point x="222" y="408" type="curve" smooth="yes"/>
      <point x="176" y="408"/>
      <point x="142" y="408"/>
      <point x="111" y="408" type="curve" smooth="yes"/>
      <point x="88" y="408"/>
      <point x="74" y="408"/>
      <point x="57" y="408" type="curve" smooth="yes"/>
      <point x="-11" y="408"/>
      <point x="-10" y="498"/>
      <point x="57" y="498" type="curve" smooth="yes"/>
      <point x="83" y="498"/>
      <point x="95" y="498"/>
      <point x="111" y="498" type="curve" smooth="yes"/>
      <point x="157" y="498"/>
      <point x="191" y="498"/>
      <point x="222" y="498" type="curve" smooth="yes"/>
      <point x="252" y="498"/>
      <point x="281" y="498"/>
      <point x="309" y="498" type="curve" smooth="yes"/>
      <point x="377" y="498"/>
      <point x="377" y="408"/>
    </contour>
  </outline>
</glyph>
<glyph name="l" format="2">
  <advance width="231"/>
  <unicode hex="006C"/>
  <outline>
    <contour>
      <point x="70" y="40" type="curve" smooth="yes"/>
      <point x="70" y="96"/>
      <point x="70" y="140"/>
      <point x="70" y="178" type="curve" smooth="yes"/>
      <point x="70" y="336"/>
      <point x="70" y="461"/>
      <point x="70" y="567" type="curve" smooth="yes"/>
      <point x="70" y="616"/>
      <point x="70" y="660"/>
      <point x="70" y="695" type="curve" smooth="yes"/>
      <point x="70" y="763"/>
      <point x="160" y="763"/>
      <point x="160" y="695" type="curve" smooth="yes"/>
      <point x="160" y="643"/>
      <point x="160" y="600"/>
      <point x="160" y="567" type="curve" smooth="yes"/>
      <point x="160" y="409"/>
      <point x="160" y="284"/>
      <point x="160" y="178" type="curve" smooth="yes"/>
      <point x="160" y="122"/>
      <point x="160" y="78"/>
      <point x="160" y="40" type="curve" smooth="yes"/>
      <point x="160" y="-28"/>
      <point x="70" y="-27"/>
    </contour>
  </outline>
</glyph>
<glyph name="m" format="2">
  <advance width="828"/>
  <unicode hex="006D"/>
  <outline>
    <contour>
      <point x="156" y="458" type="curve" smooth="yes"/>
      <point x="156" y="409"/>
      <point x="156" y="371"/>
      <point x="156" y="338" type="curve" smooth="yes"/>
      <point x="156" y="306"/>
      <point x="156" y="184"/>
      <point x="156" y="128" type="curve" smooth="yes"/>
      <point x="156" y="86"/>
      <point x="66" y="-187"/>
      <point x="66" y="130" type="curve" smooth="yes"/>
      <point x="66" y="188"/>
      <point x="66" y="232"/>
      <point x="66" y="278" type="curve" smooth="yes"/>
      <point x="66" y="424"/>
      <point x="161" y="508"/>
      <point x="285" y="508" type="curve" smooth="yes"/>
      <point x="381" y="508"/>
      <point x="463" y="444"/>
      <point x="463" y="303" type="curve" smooth="yes"/>
      <point x="463" y="257"/>
      <point x="463" y="207"/>
      <point x="463" y="175" type="curve" smooth="yes"/>
      <point x="463" y="101"/>
      <point x="373" y="-229"/>
      <point x="373" y="175" type="curve" smooth="yes"/>
      <point x="373" y="223"/>
      <point x="373" y="239"/>
      <point x="373" y="278" type="curve" smooth="yes"/>
      <point x="373" y="424"/>
      <point x="468" y="508"/>
      <point x="592" y="508" type="curve" smooth="yes"/>
      <point x="688" y="508"/>
      <point x="770" y="444"/>
      <point x="770" y="303" type="curve" smooth="yes"/>
      <point x="770" y="257"/>
      <point x="770" y="207"/>
      <point x="770" y="175" type="curve" smooth="yes"/>
      <point x="770" y="120"/>
      <point x="770" y="77"/>
      <point x="770" y="40" type="curve" smooth="yes"/>
      <point x="770" y="-28"/>
      <point x="680" y="-27"/>
      <point x="680" y="40" type="curve" smooth="yes"/>
      <point x="680" y="95"/>
      <point x="680" y="138"/>
      <point x="680" y="175" type="curve" smooth="yes"/>
      <point x="680" y="223"/>
      <point x="680" y="272"/>
      <point x="680" y="303" type="curve" smooth="yes"/>
      <point x="680" y="384"/>
      <point x="647" y="418"/>
      <point x="592" y="418" type="curve" smooth="yes"/>
      <point x="514" y="418"/>
      <point x="463" y="370"/>
      <point x="463" y="278" type="curve" smooth="yes"/>
      <point x="463" y="220"/>
      <point x="463" y="207"/>
      <point x="463" y="175" type="curve" smooth="yes"/>
      <point x="463" y="101"/>
      <point x="373" y="-229"/>
      <point x="373" y="175" type="curve" smooth="yes"/>
      <point x="373" y="223"/>
      <point x="373" y="272"/>
      <point x="373" y="303" type="curve" smooth="yes"/>
      <point x="373" y="384"/>
      <point x="340" y="418"/>
      <point x="285" y="418" type="curve" smooth="yes"/>
      <point x="207" y="418"/>
      <point x="156" y="370"/>
      <point x="156" y="278" type="curve" smooth="yes"/>
      <point x="156" y="210"/>
      <point x="156" y="169"/>
      <point x="156" y="130" type="curve" smooth="yes"/>
      <point x="156" y="87"/>
      <point x="66" y="-187"/>
      <point x="66" y="128" type="curve" smooth="yes"/>
      <point x="66" y="212"/>
      <point x="66" y="317"/>
      <point x="66" y="338" type="curve" smooth="yes"/>
      <point x="66" y="387"/>
      <point x="66" y="425"/>
      <point x="66" y="458" type="curve" smooth="yes"/>
      <point x="66" y="526"/>
      <point x="156" y="526"/>
    </contour>
  </outline>
</glyph>
<glyph name="n" format="2">
  <advance width="568"/>
  <unicode hex="006E"/>
  <outline>
    <contour>
      <point x="-2234.99995592186" y="40.00000182770472" type="curve" smooth="yes"/>
      <point x="-2234.9999575920915" y="94.83047562928166"/>
      <point x="-2234.9999589133968" y="138.2063443762825"/>
      <point x="-2234.999960034195" y="174.99999977153715" type="curve" smooth="yes"/>
      <point x="-2234.999961005553" y="206.88783444742435"/>
      <point x="-2234.9999622182645" y="246.6987089862959"/>
      <point x="-2234.9999636286802" y="292.9999979742941" type="curve" smooth="yes"/>
      <point x="-2234.9999661731545" y="376.53015696699214"/>
      <point x="-2275.767762596588" y="417.9999967558245"/>
      <point x="-2344.9999664463917" y="417.9999967558245" type="curve" smooth="yes"/>
      <point x="-2437.622793082486" y="417.9999967558245"/>
      <point x="-2499.9999603418555" y="362.5999175362462"/>
      <point x="-2499.9999571555604" y="258.00000124893137" type="curve" smooth="yes"/>
      <point x="-2499.9999550770513" y="189.76652274030226"/>
      <point x="-2499.9999550380376" y="188.48584192016511"/>
      <point x="-2499.9999532564575" y="130.00000319848303" type="curve" smooth="yes"/>
      <point x="-2499.9999519620474" y="87.50701470721906"/>
      <point x="-2589.9999436271905" y="-186.11019810194205"/>
      <point x="-2589.9999532564575" y="130.000000456926" type="curve" smooth="yes"/>
      <point x="-2589.9999558174786" y="214.07339361934424"/>
      <point x="-2589.999958944927" y="316.7414408383134"/>
      <point x="-2589.9999595924996" y="337.999997288905" type="curve" smooth="yes"/>
      <point x="-2589.99996107715" y="386.73819622364016"/>
      <point x="-2589.999961763258" y="409.26179652646545"/>
      <point x="-2589.9999632479085" y="457.9999954612005" type="curve" smooth="yes"/>
      <point x="-2589.999965304076" y="525.4999954612005"/>
      <point x="-2499.999965304076" y="525.4999982027571"/>
      <point x="-2499.9999632479085" y="457.9999982027571" type="curve" smooth="yes"/>
      <point x="-2499.9999622516425" y="425.2945267403085"/>
      <point x="-2499.9999605887656" y="370.70547149291025"/>
      <point x="-2499.9999595924996" y="338.0000000304617" type="curve" smooth="yes"/>
      <point x="-2499.9999586274776" y="306.320170722884"/>
      <point x="-2499.999954975016" y="186.41694147120657"/>
      <point x="-2499.9999532564575" y="130.00000319848306" type="curve" smooth="yes"/>
      <point x="-2499.9999519620474" y="87.50701470721923"/>
      <point x="-2589.999943627192" y="-186.11019810194188"/>
      <point x="-2589.9999532564575" y="130.00000045692602" type="curve" smooth="yes"/>
      <point x="-2589.999954451977" y="169.2465662118643"/>
      <point x="-2589.9999557607857" y="212.21233845994675"/>
      <point x="-2589.9999571555604" y="257.99999850737464" type="curve" smooth="yes"/>
      <point x="-2589.9999619503787" y="415.40458339778803"/>
      <point x="-2484.381125585994" y="507.9999967558245"/>
      <point x="-2344.9999664463917" y="507.9999967558245" type="curve" smooth="yes"/>
      <point x="-2230.373763673734" y="507.9999967558245"/>
      <point x="-2144.999967841509" y="431.2990062350355"/>
      <point x="-2144.9999636286802" y="293.00000071585094" type="curve" smooth="yes"/>
      <point x="-2144.999962682228" y="261.92980282652474"/>
      <point x="-2144.999961481729" y="222.51974647446033"/>
      <point x="-2144.999960034195" y="175.00000251309348" type="curve" smooth="yes"/>
      <point x="-2144.9999583639633" y="120.16952871151652"/>
      <point x="-2144.999957042658" y="76.7936599645157"/>
      <point x="-2144.99995592186" y="40.00000456926105" type="curve" smooth="yes"/>
      <point x="-2144.9999538656925" y="-27.49999543073892"/>
      <point x="-2234.9999538656925" y="-27.49999817229525"/>
    </contour>
  </outline>
</glyph>
<glyph name="x" format="2">
  <advance width="499"/>
  <unicode hex="0078"/>
  <outline>
    <contour>
      <point x="126" y="486" type="curve" smooth="yes"/>
      <point x="149" y="457"/>
      <point x="174" y="425"/>
      <point x="196" y="398" type="curve" smooth="yes"/>
      <point x="231" y="352"/>
      <point x="319" y="239"/>
      <point x="392" y="146" type="curve" smooth="yes"/>
      <point x="413" y="117"/>
      <point x="433" y="92"/>
      <point x="451" y="68" type="curve" smooth="yes"/>
      <point x="493" y="15"/>
      <point x="423" y="-41"/>
      <point x="381" y="12" type="curve" smooth="yes"/>
      <point x="361" y="36"/>
      <point x="341" y="63"/>
      <point x="320" y="90" type="curve" smooth="yes"/>
      <point x="245" y="188"/>
      <point x="158" y="298"/>
      <point x="124" y="342" type="curve" smooth="yes"/>
      <point x="104" y="369"/>
      <point x="79" y="401"/>
      <point x="56" y="430" type="curve" smooth="yes"/>
      <point x="14" y="483"/>
      <point x="84" y="539"/>
    </contour>
    <contour>
      <point x="446" y="430" type="curve" smooth="yes"/>
      <point x="425" y="403"/>
      <point x="402" y="374"/>
      <point x="379" y="345" type="curve" smooth="yes"/>
      <point x="309" y="258"/>
      <point x="241" y="168"/>
      <point x="190" y="104" type="curve" smooth="yes"/>
      <point x="166" y="75"/>
      <point x="141" y="43"/>
      <point x="118" y="12" type="curve" smooth="yes"/>
      <point x="76" y="-41"/>
      <point x="5" y="14"/>
      <point x="46" y="68" type="curve" smooth="yes"/>
      <point x="71" y="99"/>
      <point x="96" y="131"/>
      <point x="120" y="160" type="curve" smooth="yes"/>
      <point x="171" y="226"/>
      <point x="241" y="316"/>
      <point x="309" y="401" type="curve" smooth="yes"/>
      <point x="330" y="428"/>
      <point x="353" y="457"/>
      <point x="376" y="486" type="curve" smooth="yes"/>
      <point x="417" y="539"/>
      <point x="488" y="483"/>
    </contour>
    <contour>
      <point x="126" y="486" type="curve" smooth="yes"/>
      <point x="149" y="457"/>
      <point x="172" y="427"/>
      <point x="195" y="398" type="curve" smooth="yes"/>
      <point x="210" y="379"/>
      <point x="224" y="360"/>
      <point x="238" y="343" type="curve" smooth="yes"/>
      <point x="291" y="275"/>
      <point x="289" y="230"/>
      <point x="237" y="165" type="curve" smooth="yes"/>
      <point x="221" y="145"/>
      <point x="205" y="124"/>
      <point x="189" y="104" type="curve" smooth="yes"/>
      <point x="168" y="79"/>
      <point x="141" y="42"/>
      <point x="118" y="12" type="curve" smooth="yes"/>
      <point x="76" y="-41"/>
      <point x="5" y="14"/>
      <point x="46" y="68" type="curve" smooth="yes"/>
      <point x="71" y="100"/>
      <point x="98" y="135"/>
      <point x="119" y="160" type="curve" smooth="yes"/>
      <point x="135" y="180"/>
      <point x="151" y="201"/>
      <point x="167" y="221" type="curve" smooth="yes"/>
      <point x="192" y="253"/>
      <point x="193" y="254"/>
      <point x="166" y="287" type="curve" smooth="yes"/>
      <point x="152" y="306"/>
      <point x="138" y="325"/>
      <point x="125" y="342" type="curve" smooth="yes"/>
      <point x="102" y="371"/>
      <point x="79" y="401"/>
      <point x="56" y="430" type="curve" smooth="yes"/>
      <point x="14" y="483"/>
      <point x="84" y="539"/>
    </contour>
  </outline>
</glyph>
<glyph name="z" format="2">
  <advance width="474"/>
  <unicode hex="007A"/>
  <outline>
    <contour>
      <point x="90" y="498" type="curve" smooth="yes"/>
      <point x="142" y="498"/>
      <point x="185" y="498"/>
      <point x="228" y="498" type="curve" smooth="yes"/>
      <point x="269" y="498"/>
      <point x="297" y="498"/>
      <point x="334" y="498" type="curve" smooth="yes"/>
      <point x="453" y="498"/>
      <point x="483" y="464"/>
      <point x="395" y="363" type="curve" smooth="yes"/>
      <point x="366" y="329"/>
      <point x="346" y="306"/>
      <point x="320" y="276" type="curve" smooth="yes"/>
      <point x="289" y="239"/>
      <point x="254" y="198"/>
      <point x="223" y="162" type="curve" smooth="yes"/>
      <point x="198" y="133"/>
      <point x="183" y="113"/>
      <point x="156" y="82" type="curve" smooth="yes"/>
      <point x="152" y="77"/>
      <point x="144" y="90"/>
      <point x="150" y="90" type="curve" smooth="yes"/>
      <point x="196" y="90"/>
      <point x="218" y="90"/>
      <point x="244" y="90" type="curve" smooth="yes"/>
      <point x="312" y="90"/>
      <point x="352" y="90"/>
      <point x="388" y="90" type="curve" smooth="yes"/>
      <point x="456" y="90"/>
      <point x="456" y="0"/>
      <point x="388" y="0" type="curve" smooth="yes"/>
      <point x="334" y="0"/>
      <point x="290" y="0"/>
      <point x="244" y="0" type="curve" smooth="yes"/>
      <point x="205" y="0"/>
      <point x="181" y="0"/>
      <point x="150" y="0" type="curve" smooth="yes"/>
      <point x="23" y="0"/>
      <point x="3" y="40"/>
      <point x="88" y="140" type="curve" smooth="yes"/>
      <point x="113" y="171"/>
      <point x="130" y="191"/>
      <point x="155" y="220" type="curve" smooth="yes"/>
      <point x="186" y="256"/>
      <point x="221" y="297"/>
      <point x="252" y="334" type="curve" smooth="yes"/>
      <point x="278" y="364"/>
      <point x="298" y="387"/>
      <point x="327" y="421" type="curve" smooth="yes"/>
      <point x="331" y="426"/>
      <point x="340" y="408"/>
      <point x="334" y="408" type="curve" smooth="yes"/>
      <point x="279" y="408"/>
      <point x="256" y="408"/>
      <point x="228" y="408" type="curve" smooth="yes"/>
      <point x="165" y="408"/>
      <point x="125" y="408"/>
      <point x="90" y="408" type="curve" smooth="yes"/>
      <point x="23" y="408"/>
      <point x="23" y="498"/>
    </contour>
  </outline>
</glyph>
<glyph name="braceleft" format="2">
  <advance width="466"/>
  <unicode hex="007B"/>
  <outline>
    <contour>
      <point x="367" y="674" type="curve" smooth="yes"/>
      <point x="328" y="687"/>
      <point x="291" y="690"/>
      <point x="263" y="682" type="curve" smooth="yes"/>
      <point x="233" y="674"/>
      <point x="216" y="654"/>
      <point x="216" y="619" type="curve" smooth="yes"/>
      <point x="216" y="557"/>
      <point x="274" y="465"/>
      <point x="274" y="389" type="curve" smooth="yes"/>
      <point x="274" y="319"/>
      <point x="232" y="259"/>
      <point x="126" y="259" type="curve" smooth="yes"/>
      <point x="107" y="259"/>
      <point x="-114" y="349"/>
      <point x="126" y="349" type="curve" smooth="yes"/>
      <point x="232" y="349"/>
      <point x="274" y="290"/>
      <point x="274" y="220" type="curve" smooth="yes"/>
      <point x="274" y="140"/>
      <point x="216" y="51"/>
      <point x="216" y="-10" type="curve" smooth="yes"/>
      <point x="216" y="-42"/>
      <point x="231" y="-63"/>
      <point x="258" y="-72" type="curve" smooth="yes"/>
      <point x="287" y="-82"/>
      <point x="325" y="-80"/>
      <point x="367" y="-65" type="curve" smooth="yes"/>
      <point x="430" y="-44"/>
      <point x="459" y="-129"/>
      <point x="395" y="-151" type="curve" smooth="yes"/>
      <point x="331" y="-172"/>
      <point x="275" y="-172"/>
      <point x="230" y="-158" type="curve" smooth="yes"/>
      <point x="167" y="-137"/>
      <point x="126" y="-83"/>
      <point x="126" y="-10" type="curve" smooth="yes"/>
      <point x="126" y="74"/>
      <point x="184" y="161"/>
      <point x="184" y="220" type="curve" smooth="yes"/>
      <point x="184" y="249"/>
      <point x="170" y="259"/>
      <point x="126" y="259" type="curve" smooth="yes"/>
      <point x="107" y="259"/>
      <point x="-114" y="349"/>
      <point x="126" y="349" type="curve" smooth="yes"/>
      <point x="170" y="349"/>
      <point x="184" y="360"/>
      <point x="184" y="389" type="curve" smooth="yes"/>
      <point x="184" y="444"/>
      <point x="126" y="534"/>
      <point x="126" y="619" type="curve" smooth="yes"/>
      <point x="126" y="696"/>
      <point x="171" y="750"/>
      <point x="241" y="770" type="curve" smooth="yes"/>
      <point x="283" y="780"/>
      <point x="336" y="779"/>
      <point x="395" y="760" type="curve" smooth="yes"/>
      <point x="459" y="739"/>
      <point x="431" y="653"/>
    </contour>
  </outline>
</glyph>
<glyph name="braceright" format="2">
  <advance width="466"/>
  <unicode hex="007D"/>
  <outline>
    <contour>
      <point x="99" y="-65" type="curve" smooth="yes"/>
      <point x="141" y="-80"/>
      <point x="179" y="-82"/>
      <point x="208" y="-72" type="curve" smooth="yes"/>
      <point x="235" y="-63"/>
      <point x="250" y="-42"/>
      <point x="250" y="-10" type="curve" smooth="yes"/>
      <point x="250" y="51"/>
      <point x="192" y="140"/>
      <point x="192" y="220" type="curve" smooth="yes"/>
      <point x="192" y="290"/>
      <point x="234" y="349"/>
      <point x="340" y="349" type="curve" smooth="yes"/>
      <point x="359" y="349"/>
      <point x="580" y="259"/>
      <point x="340" y="259" type="curve" smooth="yes"/>
      <point x="234" y="259"/>
      <point x="192" y="319"/>
      <point x="192" y="389" type="curve" smooth="yes"/>
      <point x="192" y="465"/>
      <point x="250" y="557"/>
      <point x="250" y="619" type="curve" smooth="yes"/>
      <point x="250" y="654"/>
      <point x="233" y="674"/>
      <point x="202" y="683" type="curve" smooth="yes"/>
      <point x="175" y="690"/>
      <point x="138" y="687"/>
      <point x="99" y="674" type="curve" smooth="yes"/>
      <point x="35" y="653"/>
      <point x="7" y="739"/>
      <point x="71" y="760" type="curve" smooth="yes"/>
      <point x="130" y="779"/>
      <point x="183" y="780"/>
      <point x="226" y="769" type="curve" smooth="yes"/>
      <point x="295" y="750"/>
      <point x="340" y="696"/>
      <point x="340" y="619" type="curve" smooth="yes"/>
      <point x="340" y="534"/>
      <point x="282" y="444"/>
      <point x="282" y="389" type="curve" smooth="yes"/>
      <point x="282" y="360"/>
      <point x="296" y="349"/>
      <point x="340" y="349" type="curve" smooth="yes"/>
      <point x="359" y="349"/>
      <point x="580" y="259"/>
      <point x="340" y="259" type="curve" smooth="yes"/>
      <point x="296" y="259"/>
      <point x="282" y="249"/>
      <point x="282" y="220" type="curve" smooth="yes"/>
      <point x="282" y="161"/>
      <point x="340" y="74"/>
      <point x="340" y="-10" type="curve" smooth="yes"/>
      <point x="340" y="-83"/>
      <point x="299" y="-137"/>
      <point x="236" y="-158" type="curve" smooth="yes"/>
      <point x="191" y="-172"/>
      <point x="135" y="-172"/>
      <point x="71" y="-151" type="curve" smooth="yes"/>
      <point x="7" y="-129"/>
      <point x="36" y="-44"/>
    </contour>
  </outline>
</glyph>
<glyph name="registered" format="2">
  <advance width="644"/>
  <unicode hex="00AE"/>
  <outline>
    <contour>
      <point x="240" y="118" type="curve" smooth="yes"/>
      <point x="117" y="151"/>
      <point x="33" y="260"/>
      <point x="33" y="398" type="curve" smooth="yes"/>
      <point x="33" y="565"/>
      <point x="155" y="689"/>
      <point x="322" y="689" type="curve" smooth="yes"/>
      <point x="489" y="689"/>
      <point x="611" y="565"/>
      <point x="611" y="398" type="curve" smooth="yes"/>
      <point x="611" y="261"/>
      <point x="529" y="153"/>
      <point x="407" y="119" type="curve" smooth="yes"/>
      <point x="342" y="100"/>
      <point x="318" y="187"/>
      <point x="383" y="205" type="curve" smooth="yes"/>
      <point x="467" y="229"/>
      <point x="521" y="303"/>
      <point x="521" y="398" type="curve" smooth="yes"/>
      <point x="521" y="515"/>
      <point x="439" y="599"/>
      <point x="322" y="599" type="curve" smooth="yes"/>
      <point x="205" y="599"/>
      <point x="123" y="515"/>
      <point x="123" y="398" type="curve" smooth="yes"/>
      <point x="123" y="302"/>
      <point x="179" y="227"/>
      <point x="264" y="204" type="curve" smooth="yes"/>
      <point x="329" y="187"/>
      <point x="305" y="100"/>
    </contour>
    <contour>
      <point x="206" y="301" type="curve" smooth="yes"/>
      <point x="206" y="350"/>
      <point x="206" y="388"/>
      <point x="206" y="422" type="curve" smooth="yes"/>
      <point x="206" y="509"/>
      <point x="248" y="544"/>
      <point x="317" y="544" type="curve" smooth="yes"/>
      <point x="390" y="544"/>
      <point x="436" y="494"/>
      <point x="436" y="436" type="curve" smooth="yes"/>
      <point x="436" y="377"/>
      <point x="403" y="349"/>
      <point x="372" y="334" type="curve" smooth="yes"/>
      <point x="249" y="271"/>
      <point x="247" y="419"/>
      <point x="333" y="419" type="curve" smooth="yes"/>
      <point x="363" y="419"/>
      <point x="388" y="418"/>
      <point x="446" y="325" type="curve" smooth="yes"/>
      <point x="482" y="267"/>
      <point x="405" y="220"/>
      <point x="370" y="277" type="curve" smooth="yes"/>
      <point x="362" y="290"/>
      <point x="337" y="329"/>
      <point x="333" y="329" type="curve" smooth="yes"/>
      <point x="331" y="329"/>
      <point x="329" y="413"/>
      <point x="332" y="414" type="curve" smooth="yes"/>
      <point x="340" y="418"/>
      <point x="346" y="420"/>
      <point x="346" y="436" type="curve" smooth="yes"/>
      <point x="346" y="449"/>
      <point x="333" y="454"/>
      <point x="317" y="454" type="curve" smooth="yes"/>
      <point x="296" y="454"/>
      <point x="296" y="449"/>
      <point x="296" y="422" type="curve" smooth="yes"/>
      <point x="296" y="372"/>
      <point x="296" y="334"/>
      <point x="296" y="301" type="curve" smooth="yes"/>
      <point x="296" y="234"/>
      <point x="206" y="234"/>
    </contour>
  </outline>
</glyph>
<glyph name="paragraph" format="2">
  <advance width="778"/>
  <unicode hex="00B6"/>
  <outline>
    <contour>
      <point x="581" y="40" type="curve" smooth="yes"/>
      <point x="581" y="139"/>
      <point x="581" y="398"/>
      <point x="581" y="531" type="curve" smooth="yes"/>
      <point x="581" y="595"/>
      <point x="584" y="590"/>
      <point x="498" y="590" type="curve" smooth="yes"/>
      <point x="405" y="590"/>
      <point x="333" y="590"/>
      <point x="271" y="590" type="curve" smooth="yes"/>
      <point x="192" y="590"/>
      <point x="137" y="540"/>
      <point x="137" y="464" type="curve" smooth="yes"/>
      <point x="137" y="392"/>
      <point x="196" y="341"/>
      <point x="258" y="341" type="curve" smooth="yes"/>
      <point x="305" y="341"/>
      <point x="351" y="336"/>
      <point x="351" y="383" type="curve" smooth="yes"/>
      <point x="351" y="445"/>
      <point x="351" y="450"/>
      <point x="351" y="494" type="curve" smooth="yes"/>
      <point x="351" y="524"/>
      <point x="441" y="771"/>
      <point x="441" y="492" type="curve" smooth="yes"/>
      <point x="441" y="285"/>
      <point x="441" y="113"/>
      <point x="441" y="40" type="curve" smooth="yes"/>
      <point x="441" y="-28"/>
      <point x="351" y="-27"/>
      <point x="351" y="40" type="curve" smooth="yes"/>
      <point x="351" y="148"/>
      <point x="351" y="353"/>
      <point x="351" y="492" type="curve" smooth="yes"/>
      <point x="351" y="522"/>
      <point x="441" y="771"/>
      <point x="441" y="494" type="curve" smooth="yes"/>
      <point x="441" y="428"/>
      <point x="441" y="425"/>
      <point x="441" y="383" type="curve" smooth="yes"/>
      <point x="441" y="275"/>
      <point x="365" y="251"/>
      <point x="258" y="251" type="curve" smooth="yes"/>
      <point x="150" y="251"/>
      <point x="47" y="338"/>
      <point x="47" y="464" type="curve" smooth="yes"/>
      <point x="47" y="588"/>
      <point x="141" y="680"/>
      <point x="271" y="680" type="curve" smooth="yes"/>
      <point x="364" y="680"/>
      <point x="436" y="680"/>
      <point x="498" y="680" type="curve" smooth="yes"/>
      <point x="652" y="680"/>
      <point x="671" y="645"/>
      <point x="671" y="531" type="curve" smooth="yes"/>
      <point x="671" y="332"/>
      <point x="671" y="106"/>
      <point x="671" y="40" type="curve" smooth="yes"/>
      <point x="671" y="-28"/>
      <point x="581" y="-27"/>
    </contour>
  </outline>
</glyph>
<glyph name="periodcentered" format="2">
  <advance width="260"/>
  <unicode hex="00B7"/>
  <outline>
    <contour>
      <point x="133" y="245" type="curve" smooth="yes"/>
      <point x="49" y="258"/>
      <point x="49" y="366"/>
      <point x="133" y="379" type="curve" smooth="yes"/>
      <point x="200" y="388"/>
      <point x="213" y="299"/>
      <point x="147" y="289" type="curve" smooth="yes"/>
      <point x="144" y="289"/>
      <point x="144" y="335"/>
      <point x="147" y="335" type="curve" smooth="yes"/>
      <point x="213" y="325"/>
      <point x="200" y="236"/>
    </contour>
  </outline>
</glyph>
<glyph name="Thorn" format="2">
  <advance width="593"/>
  <unicode hex="00DE"/>
  <outline>
    <contour>
      <point x="129" y="552" type="curve" smooth="yes"/>
      <point x="295" y="552" type="line" smooth="yes"/>
      <point x="431" y="552"/>
      <point x="520" y="461"/>
      <point x="520" y="338" type="curve" smooth="yes"/>
      <point x="520" y="211"/>
      <point x="429" y="125"/>
      <point x="307" y="125" type="curve" smooth="yes"/>
      <point x="129" y="125" type="line" smooth="yes"/>
      <point x="62" y="125"/>
      <point x="62" y="215"/>
      <point x="129" y="215" type="curve" smooth="yes"/>
      <point x="307" y="215" type="line" smooth="yes"/>
      <point x="381" y="215"/>
      <point x="430" y="261"/>
      <point x="430" y="338" type="curve" smooth="yes"/>
      <point x="430" y="413"/>
      <point x="379" y="462"/>
      <point x="295" y="462" type="curve" smooth="yes"/>
      <point x="129" y="462" type="line" smooth="yes"/>
      <point x="62" y="462"/>
      <point x="62" y="552"/>
    </contour>
    <contour>
      <point x="80" y="40" type="curve" smooth="yes"/>
      <point x="80" y="635" type="line" smooth="yes"/>
      <point x="80" y="703"/>
      <point x="170" y="703"/>
      <point x="170" y="635" type="curve" smooth="yes"/>
      <point x="170" y="40" type="line" smooth="yes"/>
      <point x="170" y="-28"/>
      <point x="80" y="-27"/>
    </contour>
  </outline>
</glyph>
<glyph name="minus" format="2">
  <advance width="476"/>
  <unicode hex="2212"/>
  <outline>
    <contour>
      <point x="396" y="263" type="curve" smooth="yes"/>
      <point x="80" y="263" type="line" smooth="yes"/>
      <point x="12" y="263"/>
      <point x="13" y="353"/>
      <point x="80" y="353" type="curve" smooth="yes"/>
      <point x="396" y="353" type="line" smooth="yes"/>
      <point x="464" y="353"/>
      <point x="464" y="263"/>
    </contour>
  </outline>
</glyph>
<glyph name="p" format="2">
  <advance width="623"/>
  <outline>
    <contour>
      <point x="67.01921419002231" y="-121.96950647880472" type="curve" smooth="yes"/>
      <point x="67.02326816268244" y="-104.01446769046822"/>
      <point x="67.0261928724992" y="-77.33023262983035"/>
      <point x="67.02619094255246" y="-13.973817563490202" type="curve" smooth="yes"/>
      <point x="67.02618226095609" y="271.0261780957116" type="line" smooth="yes"/>
      <point x="67.02617730840498" y="433.60883943411284"/>
      <point x="177.00232734794653" y="547.0261761766219"/>
      <point x="320.02617228473565" y="547.0261761766219" type="curve" smooth="yes"/>
      <point x="463.0500172215246" y="547.0261761766219"/>
      <point x="573.0261711855948" y="431.60884251074896"/>
      <point x="573.026176138146" y="269.0261811723476" type="curve" smooth="yes"/>
      <point x="573.0261811081256" y="105.87137612982526"/>
      <point x="456.42870712539917" y="-9.967778926411107"/>
      <point x="319.027051122159" y="-9.97591117038754" type="curve" smooth="yes"/>
      <point x="174.84433737380616" y="-9.984444757532652"/>
      <point x="67.00000739463101" y="104.49858758490326"/>
      <point x="67.00000244455481" y="266.99999821798804" type="curve" smooth="yes"/>
      <point x="67.00000035239691" y="335.68148828912996"/>
      <point x="67.0078530252701" y="378.6481909190241"/>
      <point x="67.00785109522448" y="442.00784953417974" type="curve" smooth="yes"/>
      <point x="67.0078502127738" y="470.9769958625793"/>
      <point x="67.00667192530203" y="491.2625155922828"/>
      <point x="67.00348814709805" y="501.98864559582665" type="curve" smooth="yes"/>
      <point x="66.98122631037783" y="576.9886422918975"/>
      <point x="166.98122190513888" y="577.0183247408578"/>
      <point x="167.0034837418591" y="502.018328044787" type="curve" smooth="yes"/>
      <point x="167.00645307785956" y="492.0146525608139"/>
      <point x="167.0078502722109" y="469.0257927713913"/>
      <point x="167.00785109522442" y="442.007852580354" type="curve" smooth="yes"/>
      <point x="167.00785254353605" y="394.46258796145673"/>
      <point x="166.99999965497642" y="358.57645207112506"/>
      <point x="167.00000244455475" y="267.0000012641624" type="curve" smooth="yes"/>
      <point x="167.0000055935592" y="163.6242875422325"/>
      <point x="227.29890758386736" y="90.01865998982451"/>
      <point x="319.0211325296862" y="90.02408865446378" type="curve" smooth="yes"/>
      <point x="405.52365669239873" y="90.0292083862889"/>
      <point x="473.02617926704414" y="166.31051314815704"/>
      <point x="473.02617613814596" y="269.02617812617325" type="curve" smooth="yes"/>
      <point x="473.0261729922898" y="372.29854197830963"/>
      <point x="410.8747931170662" y="447.0261761766219"/>
      <point x="320.02617228473565" y="447.0261761766219" type="curve" smooth="yes"/>
      <point x="229.13210441847207" y="447.0261761766219"/>
      <point x="167.02617911352624" y="374.3502070069547"/>
      <point x="167.02618226095603" y="271.02618114188584" type="curve" smooth="yes"/>
      <point x="167.0261909425524" y="-13.973814517316013" type="line" smooth="yes"/>
      <point x="167.02619266642677" y="-70.56527173639626"/>
      <point x="167.02283274591247" y="-105.95421714069325"/>
      <point x="167.01921164108637" y="-121.99208494607835" type="curve" smooth="yes"/>
      <point x="167.00227779063113" y="-196.99208303437638"/>
      <point x="67.00228033956708" y="-196.96950456710277"/>
    </contour>
  </outline>
</glyph>
<glyph name="period" format="2">
  <advance width="257"/>
  <outline>
    <contour>
      <point x="171.7475507686925" y="80.6721531438179" type="curve" smooth="yes"/>
      <point x="171.31158299106758" y="79.79956980319339"/>
      <point x="166.2441726645143" y="74.448406761514"/>
      <point x="170.82894082475832" y="67.46286299411575" type="curve" smooth="yes"/>
      <point x="211.98134261637233" y="4.761349242200936"/>
      <point x="128.37932428048597" y="-50.108519813284516"/>
      <point x="87.22692248887195" y="12.5929939386303" type="curve" smooth="yes"/>
      <point x="50.4638252398273" y="68.60678043392254"/>
      <point x="78.79573326338334" y="118.37011173554072"/>
      <point x="82.2915536072029" y="125.36694670910433" type="curve" smooth="yes"/>
      <point x="115.81264878116767" y="192.45894458022153"/>
      <point x="205.26864594265726" y="147.7641510149351"/>
    </contour>
  </outline>
</glyph>
